<svg width="32" height="32" viewBox="0 0 32 32" fill="none" xmlns="http://www.w3.org/2000/svg">
  <rect width="32" height="32" rx="8" fill="#ffc000"/>
  <path d="M8 12c0-2.21 1.79-4 4-4h8c2.21 0 4 1.79 4 4v8c0 2.21-1.79 4-4 4h-8c-2.21 0-4-1.79-4-4v-8z" fill="white"/>
  <path d="M12 14h8v2h-8v-2zm0 3h6v2h-6v-2zm0 3h4v2h-4v-2z" fill="#ffc000"/>
  <circle cx="22" cy="10" r="3" fill="#f4b400"/>
  <path d="M20.5 10.5l1 1 2-2" stroke="white" stroke-width="1.5" stroke-linecap="round" stroke-linejoin="round"/>
</svg>