<svg width="32" height="32" viewBox="0 0 32 32" fill="none" xmlns="http://www.w3.org/2000/svg">
  <defs>
    <linearGradient id="logoGradient" x1="0%" y1="0%" x2="100%" y2="100%">
      <stop offset="0%" style="stop-color:#ffc000;stop-opacity:1" />
      <stop offset="100%" style="stop-color:#f4b400;stop-opacity:1" />
    </linearGradient>
  </defs>
  <rect width="32" height="32" rx="10" fill="url(#logoGradient)" stroke="#f4b400" stroke-width="0.5"/>
  <g transform="translate(6, 6)">
    <!-- AI Brain/Circuit pattern -->
    <circle cx="10" cy="6" r="2" fill="white" opacity="0.9"/>
    <circle cx="6" cy="10" r="1.5" fill="white" opacity="0.8"/>
    <circle cx="14" cy="10" r="1.5" fill="white" opacity="0.8"/>
    <circle cx="10" cy="14" r="2" fill="white" opacity="0.9"/>
    
    <!-- Connection lines -->
    <path d="M8.5 7.5L7.5 8.5M11.5 7.5L12.5 8.5M8.5 12.5L7.5 11.5M11.5 12.5L12.5 11.5" 
          stroke="white" stroke-width="1" opacity="0.7" stroke-linecap="round"/>
    
    <!-- Website/Document icon -->
    <rect x="16" y="2" width="8" height="6" rx="1" fill="white" opacity="0.9"/>
    <rect x="17" y="3" width="6" height="1" fill="#ffc000"/>
    <rect x="17" y="5" width="4" height="1" fill="#ffc000"/>
    <rect x="17" y="7" width="5" height="1" fill="#ffc000"/>
  </g>
  
  <!-- AI indicator dot -->
  <circle cx="26" cy="6" r="2.5" fill="white" opacity="0.9"/>
  <circle cx="26" cy="6" r="1.5" fill="#f4b400"/>
</svg>