<svg width="92" height="92" viewBox="0 0 92 92" fill="none" xmlns="http://www.w3.org/2000/svg">
  <defs>
    <linearGradient id="logoGradient" x1="0%" y1="0%" x2="100%" y2="100%">
      <stop offset="0%" style="stop-color:#ffc000;stop-opacity:1" />
      <stop offset="100%" style="stop-color:#f4b400;stop-opacity:1" />
    </linearGradient>
  </defs>
  <rect width="92" height="92" rx="20" fill="url(#logoGradient)" stroke="#f4b400" stroke-width="1"/>
  <g transform="translate(18, 18)">
    <!-- AI Brain/Circuit pattern -->
    <circle cx="28" cy="18" r="6" fill="white" opacity="0.9"/>
    <circle cx="18" cy="28" r="4.5" fill="white" opacity="0.8"/>
    <circle cx="38" cy="28" r="4.5" fill="white" opacity="0.8"/>
    <circle cx="28" cy="38" r="6" fill="white" opacity="0.9"/>
    
    <!-- Connection lines -->
    <path d="M24 22L21 25M32 22L35 25M24 34L21 31M32 34L35 31" 
          stroke="white" stroke-width="2.5" opacity="0.7" stroke-linecap="round"/>
    
    <!-- Website/Document icon -->
    <rect x="44" y="8" width="20" height="16" rx="2" fill="white" opacity="0.9"/>
    <rect x="47" y="12" width="14" height="2" fill="#ffc000"/>
    <rect x="47" y="16" width="10" height="2" fill="#ffc000"/>
    <rect x="47" y="20" width="12" height="2" fill="#ffc000"/>
  </g>
  
  <!-- AI indicator dot -->
  <circle cx="74" cy="18" r="6" fill="white" opacity="0.9"/>
  <circle cx="74" cy="18" r="4" fill="#f4b400"/>
</svg>